<svg width="512" height="512" viewBox="0 0 512 512" fill="none" xmlns="http://www.w3.org/2000/svg">
<g clip-path="url(#clip0_206_2)">
<path d="M100.109 80.7326C101.509 80.7288 102.908 80.7242 104.307 80.7189C108.124 80.7067 111.941 80.7069 115.757 80.7092C119.885 80.7097 124.013 80.6986 128.14 80.6891C136.218 80.6726 144.295 80.667 152.372 80.6659C158.943 80.6649 165.514 80.6608 172.085 80.6545C190.743 80.6369 209.402 80.6277 228.06 80.6292C229.567 80.6293 229.567 80.6293 231.105 80.6294C232.111 80.6295 233.116 80.6296 234.153 80.6296C250.442 80.6305 266.731 80.6113 283.021 80.5831C299.775 80.5543 316.529 80.5406 333.283 80.5423C342.677 80.543 352.072 80.5376 361.466 80.516C369.467 80.4977 377.468 80.4935 385.469 80.507C389.545 80.5135 393.62 80.5138 397.695 80.4963C431.722 80.3597 459.384 85.9965 484.598 110.527C504.419 131.39 512.671 156.702 512.518 185.098C512.523 186.825 512.53 188.552 512.539 190.279C512.557 194.911 512.55 199.543 512.537 204.176C512.527 209.06 512.537 213.944 512.543 218.828C512.55 227.025 512.541 235.222 512.522 243.419C512.5 252.85 512.507 262.28 512.529 271.711C512.547 279.857 512.549 288.004 512.539 296.151C512.533 300.995 512.532 305.838 512.545 310.682C512.557 315.24 512.549 319.797 512.526 324.354C512.52 326.01 512.522 327.667 512.531 329.324C512.67 357.824 502.787 382.325 483 403C465.096 420.829 440.67 431.228 415.378 431.406C414.108 431.4 412.838 431.394 411.53 431.388C410.128 431.392 408.726 431.397 407.325 431.404C403.515 431.418 399.705 431.414 395.894 431.407C391.769 431.402 387.643 431.415 383.518 431.425C375.451 431.442 367.384 431.443 359.318 431.438C352.755 431.434 346.193 431.435 339.631 431.44C338.694 431.441 337.758 431.442 336.793 431.443C334.89 431.444 332.987 431.446 331.084 431.447C313.264 431.461 295.445 431.456 277.626 431.444C261.356 431.434 245.087 431.447 228.817 431.471C212.076 431.495 195.336 431.505 178.595 431.498C169.211 431.495 159.826 431.497 150.442 431.515C142.452 431.529 134.462 431.53 126.472 431.513C122.403 431.504 118.334 431.502 114.265 431.517C80.2566 431.637 52.6007 425.989 27.4024 401.473C7.5814 380.61 -0.670914 355.298 -0.517561 326.902C-0.523 325.175 -0.530133 323.448 -0.538801 321.721C-0.556822 317.089 -0.550055 312.457 -0.537283 307.824C-0.527044 302.94 -0.536581 298.056 -0.54283 293.172C-0.550075 284.975 -0.540602 276.778 -0.521467 268.581C-0.499705 259.15 -0.506762 249.72 -0.528776 240.289C-0.547021 232.143 -0.549438 223.996 -0.539015 215.849C-0.532829 211.005 -0.531809 206.162 -0.545164 201.318C-0.556855 196.76 -0.54846 192.203 -0.525587 187.646C-0.52037 185.99 -0.521691 184.333 -0.530638 182.676C-0.671316 153.943 9.37115 129.119 29.5274 108.402C49.0563 89.8484 73.3332 80.6677 100.109 80.7326Z" fill="#8C00FF"/>
<path d="M391.75 182.812C392.502 183.132 393.253 183.451 394.028 183.779C399.581 186.344 403.206 189.412 406 195C406.743 201.891 405.984 208.281 401.559 213.797C398.074 217.192 394.682 219.097 389.793 219.383C385.231 218.757 381.079 217.05 376.848 215.274C368.636 211.837 360.555 211.766 351.75 211.687C350.681 211.658 349.613 211.629 348.512 211.6C337.579 211.513 328.045 214.38 320 222C309.981 232.577 308.509 246.091 308.723 259.988C309.163 271.467 312.481 283.523 320.813 291.801C329.58 298.924 339.511 301.179 350.5 301.188C351.753 301.206 351.753 301.206 353.031 301.225C360.067 301.241 365.828 300.195 373 299C373.33 290.75 373.66 282.5 374 274C367.029 274.158 367.029 274.158 360.06 274.36C354.229 274.427 350.484 274.15 346 270C342.719 265.416 343.298 259.361 344 254C345.565 250.611 347.782 248.657 351.089 246.873C355.204 245.639 359.119 245.675 363.395 245.664C364.301 245.657 365.207 245.651 366.141 245.644C368.054 245.634 369.968 245.629 371.882 245.629C374.792 245.625 377.701 245.589 380.611 245.551C382.477 245.545 384.342 245.541 386.207 245.539C387.069 245.525 387.93 245.51 388.818 245.496C394.493 245.538 399.448 246.39 404 250C406.802 253.734 407.378 256.432 407.388 261.056C407.398 262.254 407.407 263.453 407.417 264.687C407.408 266.617 407.408 266.617 407.398 268.586C407.4 269.93 407.403 271.273 407.407 272.617C407.412 275.43 407.405 278.242 407.391 281.055C407.374 284.645 407.384 288.234 407.402 291.824C407.413 294.598 407.409 297.373 407.401 300.147C407.399 302.11 407.408 304.072 407.417 306.035C407.357 313.655 407.047 319.157 402.191 325.281C385.638 338.264 353.44 337.579 333.521 335.224C313.598 332.532 295.277 324.481 282.102 308.73C270.981 293.701 265.583 275.845 265.688 257.312C265.693 256.258 265.699 255.204 265.705 254.117C266.038 232.559 273.043 213.649 287.688 197.75C314.172 172.845 359.141 168.904 391.75 182.812Z" fill="#FCFEFF"/>
<path d="M134.621 177.688C139.201 179.766 141.65 182.488 144 187C145.352 190.882 145.145 194.884 145.142 198.943C145.145 199.74 145.149 200.538 145.152 201.359C145.16 203.09 145.165 204.821 145.169 206.551C145.176 209.303 145.192 212.054 145.21 214.806C145.262 222.629 145.31 230.452 145.326 238.275C145.336 243.065 145.366 247.854 145.407 252.644C145.419 254.458 145.425 256.272 145.422 258.086C145.372 276.893 145.372 276.893 153.188 293.625C159.36 299.668 165.369 301.373 173.938 301.5C182.612 301.371 189.562 299.819 195.875 293.625C203.707 283.227 203.566 270.222 203.486 257.807C203.468 255.002 203.476 252.198 203.49 249.392C203.515 243.449 203.51 237.506 203.5 231.563C203.488 224.644 203.49 217.725 203.524 210.807C203.531 208.053 203.515 205.3 203.497 202.546C203.503 200.853 203.51 199.16 203.518 197.467C203.501 196.332 203.501 196.332 203.483 195.173C203.56 188.471 205.956 183.829 210.75 179.063C214.568 176.542 218.619 176.536 223.063 176.5C223.747 176.494 224.432 176.487 225.138 176.481C229.789 176.597 233.047 177.577 237 180C242.287 185.727 243.298 189.969 243.275 197.661C243.28 198.535 243.285 199.409 243.29 200.309C243.304 203.202 243.303 206.095 243.301 208.988C243.305 211.009 243.309 213.03 243.314 215.051C243.321 219.296 243.321 223.54 243.316 227.784C243.31 233.186 243.327 238.588 243.35 243.989C243.365 248.17 243.366 252.351 243.363 256.532C243.363 258.521 243.368 260.509 243.378 262.498C243.442 276.813 243.34 291.372 236.375 304.313C236.028 304.976 235.681 305.639 235.324 306.322C227.513 320.657 216.032 328.108 200.773 332.957C199.528 333.301 198.283 333.645 197 334C196.336 334.188 195.671 334.377 194.987 334.571C188.397 336.26 181.961 336.297 175.188 336.25C173.539 336.262 173.539 336.262 171.857 336.273C153.464 336.23 135.549 331.364 121.652 318.742C105.823 302.052 104.52 280.197 104.602 258.469C104.6 256.538 104.597 254.607 104.593 252.676C104.589 248.662 104.595 244.649 104.609 240.635C104.626 235.506 104.616 230.378 104.598 225.249C104.587 221.276 104.591 217.302 104.599 213.328C104.601 211.437 104.598 209.545 104.591 207.654C104.583 205.013 104.595 202.373 104.612 199.732C104.603 198.579 104.603 198.579 104.593 197.402C104.656 191.998 105.768 187.94 108 183C115.277 175.909 125.001 175.164 134.621 177.688Z" fill="#FDFEFF"/>
</g>
<defs>
<clipPath id="clip0_206_2">
<rect width="512" height="512" fill="white"/>
</clipPath>
</defs>
</svg>
